<?xml version="1.0" encoding="UTF-8"?>
<!DOCTYPE svg PUBLIC "-//W3C//DTD SVG 1.1//EN" "http://www.w3.org/Graphics/SVG/1.1/DTD/svg11.dtd">
<!-- Creator: CorelDRAW -->
<svg xmlns="http://www.w3.org/2000/svg" xml:space="preserve" style="shape-rendering:geometricPrecision; text-rendering:geometricPrecision; image-rendering:optimizeQuality; fill-rule:evenodd; clip-rule:evenodd"
viewBox="0 0 6.82666 6.82666"
 width="35px" height="35px"
 xmlns:xlink="http://www.w3.org/1999/xlink">
 <defs>
  <style type="text/css">
   <![CDATA[
    .fil1 {fill:#e0e0e085}
   ]]>
  </style>
 </defs>
 <g id="Layer_x0020_1">
  <metadata id="CorelCorpID_0Corel-Layer"/>
  <path class="fil1" d="M4.62585 5.52542l0 0zm-0.429008 0.0798346l0 0zm-3.21204 -4.03251l0 0zm1.23471 -0.4025c0.451654,0.0219921 0.866071,0.14348 0.902248,0.169866l2.73224 1.99262c0.0684055,0.0498898 0.108193,0.12461 0.117193,0.204772 0.00859449,0.0765709 -0.0113504,0.158768 -0.0619055,0.228087l-1.28344 1.75983c-0.0504685,0.0691929 -0.122839,0.113291 -0.198736,0.128579 -0.0790118,0.0159055 -0.162134,0.000944882 -0.230272,-0.0487441l-2.73223 -1.99261c-0.0485157,-0.0353819 -0.424374,-0.628988 -0.55915,-1.18746 -0.0766732,-0.317713 -0.0811772,-0.632339 0.0793425,-0.852433 0.257339,-0.352839 0.774142,-0.424929 1.23471,-0.4025zm-1.23472 0.402512l1.1811e-005 -1.1811e-005m0.48765 0.094126c0.128008,0 0.23178,0.103772 0.23178,0.23178 0,0.128008 -0.103772,0.23178 -0.23178,0.23178 -0.128008,0 -0.23178,-0.103772 -0.23178,-0.23178 0,-0.128008 0.103772,-0.23178 0.23178,-0.23178zm2.32251 2.78484c0.0315472,0.0230079 0.0695433,0.0310315 0.105465,0.0254094 0.0356969,-0.00558661 0.0692598,-0.0247795 0.0922008,-0.0562362l1.1811e-005 -1.1811e-005c0.0229961,-0.0315433 0.0310236,-0.0695433 0.0254016,-0.105453 -0.00558661,-0.0356969 -0.0247795,-0.0692559 -0.0562362,-0.0921969l-2.3622e-005 -1.9685e-005c-0.0315433,-0.0229961 -0.0695394,-0.0310197 -0.105445,-0.0253976 -0.0356969,0.00558661 -0.0692559,0.0247795 -0.0921969,0.0562362l-1.1811e-005 1.1811e-005c-0.023,0.0315472 -0.0310236,0.0695433 -0.0254016,0.105457 0.00558661,0.0356969 0.0247795,0.0692598 0.0562362,0.0922008zm0.137969 0.235409c-0.0892992,0.0139803 -0.18402,-0.00616142 -0.262969,-0.0637402 -0.0790276,-0.0576339 -0.127228,-0.141843 -0.141236,-0.231366 -0.0139803,-0.0893031 0.00616142,-0.18402 0.0637402,-0.262969l1.1811e-005 -1.5748e-005c0.0576417,-0.0790197 0.141835,-0.127209 0.231354,-0.141224 0.0892953,-0.0139803 0.18402,0.00616535 0.262965,0.0637402l3.14961e-005 2.3622e-005c0.0790118,0.0576417 0.127197,0.141831 0.141213,0.231346 0.0139803,0.0892953 -0.00616535,0.18402 -0.0637402,0.262965l-1.1811e-005 1.5748e-005c-0.0576378,0.0790236 -0.141839,0.127217 -0.231358,0.141224zm0.0597008 -0.26624l7.87402e-006 -7.87402e-006m-0.228504 -0.166827l-7.87402e-006 7.87402e-006m0.557724 1.17954l7.87402e-006 7.87402e-006m-1.69655 -1.59139c-0.0579882,0.00897244 -0.11228,-0.0307598 -0.121252,-0.088748 -0.00897244,-0.0579882 0.0307598,-0.11228 0.088748,-0.121252l2.32653 -0.364189c0.0579882,-0.00897244 0.11228,0.0307598 0.121252,0.088748 0.00897244,0.0579882 -0.0307598,0.11228 -0.088748,0.121252l-2.32653 0.364189zm0.957531 -0.955201c0.0315472,0.0230079 0.0695433,0.0310315 0.105465,0.0254094 0.0356969,-0.00558661 0.0692598,-0.0247795 0.0922008,-0.0562362l1.1811e-005 -1.1811e-005c0.0229961,-0.0315433 0.0310236,-0.0695433 0.0254016,-0.105453 -0.00558661,-0.0356969 -0.0247795,-0.0692559 -0.0562362,-0.0921969l-2.3622e-005 -1.9685e-005c-0.0315433,-0.0229961 -0.0695394,-0.0310197 -0.105445,-0.0253976 -0.0356969,0.00558661 -0.0692559,0.0247795 -0.0921969,0.0562362l-1.1811e-005 1.1811e-005c-0.023,0.0315472 -0.0310236,0.0695433 -0.0254016,0.105457 0.00558661,0.0356969 0.0247795,0.0692598 0.0562362,0.0922008zm0.137969 0.235409c-0.0892992,0.0139803 -0.18402,-0.00616142 -0.262969,-0.0637402 -0.0790276,-0.0576339 -0.127228,-0.141843 -0.141236,-0.231366 -0.0139803,-0.0893031 0.00616142,-0.18402 0.0637402,-0.262969l1.1811e-005 -1.5748e-005c0.0576417,-0.0790197 0.141835,-0.127209 0.231354,-0.141224 0.0892953,-0.0139803 0.18402,0.00616535 0.262965,0.0637402l3.14961e-005 2.3622e-005c0.0790118,0.0576417 0.127197,0.141831 0.141213,0.231346 0.0139803,0.0892953 -0.00616535,0.18402 -0.0637402,0.262965l-1.1811e-005 1.5748e-005c-0.0576378,0.0790236 -0.141839,0.127217 -0.231358,0.141224zm0.0597008 -0.26624l7.87402e-006 -7.87402e-006m-0.228504 -0.166827l-7.87402e-006 7.87402e-006"/>
 </g>
</svg>
