<?xml version="1.0" encoding="utf-8"?>
<!-- Generator: Adobe Illustrator 16.0.0, SVG Export Plug-In . SVG Version: 6.00 Build 0)  -->
<!DOCTYPE svg PUBLIC "-//W3C//DTD SVG 1.0//EN" "http://www.w3.org/TR/2001/REC-SVG-20010904/DTD/svg10.dtd">
<svg version="1.0" id="Layer_1" xmlns="http://www.w3.org/2000/svg" xmlns:xlink="http://www.w3.org/1999/xlink" x="0px" y="0px" width="30px" height="30px" viewBox="0 0 100 100" enable-background="new 0 0 100 100" xml:space="preserve" fill="#e0e0e085">
<path d="M76.497,36.667c0.102,1.1,0.17,2.207,0.17,3.333c0,20.218-16.449,36.667-36.667,36.667c-1.126,0-2.233-0.068-3.333-0.17V90
	H90V36.667H76.497z"/>
<path d="M30,30h38.255C64.134,18.356,53.057,10,40,10c-16.569,0-30,13.431-30,30c0,13.057,8.356,24.134,20,28.255V30z"/>
<path d="M36.667,69.802c1.094,0.12,2.207,0.195,3.333,0.195c16.569,0,30-13.428,30-29.997c0-1.126-0.075-2.236-0.195-3.333H36.667
	V69.802z"/>
</svg>
